General
Complete name                            : Before Dawn 2012 DVDRip x264 AC3-FooKaS.mkv
Format                                   : Matroska
Format version                           : Version 4 / Version 2
File size                                : 1.39 GiB
Duration                                 : 1h 22mn
Overall bit rate                         : 2 421 Kbps
Encoded date                             : UTC 2013-03-01 16:28:47
Writing application                      : mkvmerge v6.0.0 ('Coming Up For Air') built on Jan 20 2013 09:52:00
Writing library                          : libebml v1.3.0 + libmatroska v1.4.0

Video
ID                                       : 1
Format                                   : AVC
Format/Info                              : Advanced Video Codec
Format profile                           : High@L4.1
Format settings, CABAC                   : Yes
Format settings, ReFrames                : 7 frames
Codec ID                                 : V_MPEG4/ISO/AVC
Duration                                 : 1h 22mn
Bit rate                                 : 1 971 Kbps
Width                                    : 720 pixels
Height                                   : 304 pixels
Display aspect ratio                     : 2.35:1
Frame rate                               : 25.000 fps
Color space                              : YUV
Chroma subsampling                       : 4:2:0
Bit depth                                : 8 bits
Scan type                                : Progressive
Bits/(Pixel*Frame)                       : 0.360
Stream size                              : 1.10 GiB (80%)
Writing library                          : x264 core 129 r2245 bc13772
Language                                 : English
Default                                  : Yes
Forced                                   : No
Color primaries                          : Generic film

Audio
ID                                       : 2
Format                                   : AC-3
Format/Info                              : Audio Coding 3
Mode extension                           : CM (complete main)
Codec ID                                 : A_AC3
Duration                                 : 1h 22mn
Bit rate mode                            : Constant
Bit rate                                 : 448 Kbps
Channel(s)                               : 6 channels
Channel positions                        : Front: L C R, Side: L R, LFE
Sampling rate                            : 48.0 KHz
Bit depth                                : 16 bits
Compression mode                         : Lossy
Delay relative to video                  : 15ms
Stream size                              : 263 MiB (19%)
Default                                  : Yes
Forced                                   : No


Screens: 
http://imgbox.com/abpBnXZT 
http://imgbox.com/abngH3L2 
http://imgbox.com/acwELzZd 
http://imgbox.com/adf6NTLK 
http://imgbox.com/adf4IeqR